# xmcd
#
# Track frame offsets: 
#        150
#        17803
#        47518
#        64090
#        83945
#        97249
#        125496
#        144637
#        158475
#        187373
#
# Disc length: 2685 seconds
#
# Revision: 0
# Processed by: cddbd v1.5.2PL0 Copyright (c) Steve Scherf et al.
# Submitted via: ExactAudioCopyFreeDBPlugin 1.0
#
DISCID=8c0a7b0a
DTITLE=Blues Cousins - KGB Blues
DYEAR=2011
DGENRE=Blues/Rock
TTITLE0=KGB Blues
TTITLE1=The Brother
TTITLE2=I'm Mad
TTITLE3=Love Matters
TTITLE4=What Would You Say?
TTITLE5=Rock'n'Roll (version 1)
TTITLE6=You Don't Know
TTITLE7=The Blues That Rocks
TTITLE8=The Chocolate
TTITLE9=Rock'n'Roll (version 2)
EXTD=
EXTT0=
EXTT1=
EXTT2=
EXTT3=
EXTT4=
EXTT5=
EXTT6=
EXTT7=
EXTT8=
EXTT9=
PLAYORDER=
